<svg width="20" height="20" viewBox="0 0 20 20" fill="none" xmlns="http://www.w3.org/2000/svg">
<path d="M18.1 19L17.9414 19.4742C18.1146 19.5321 18.3055 19.491 18.4395 19.367C18.5736 19.243 18.6294 19.0558 18.5851 18.8787L18.1 19ZM17.2 15.4009L16.8003 15.1005C16.7097 15.221 16.6784 15.376 16.7149 15.5222L17.2 15.4009ZM14.5 17.796L14.6586 17.3218C14.5226 17.2763 14.3737 17.2914 14.2496 17.3632L14.5 17.796ZM10 18.5C5.30558 18.5 1.5 14.6944 1.5 10H0.5C0.5 15.2467 4.75329 19.5 10 19.5V18.5ZM1.5 10C1.5 5.30558 5.30558 1.5 10 1.5V0.5C4.75329 0.5 0.5 4.75329 0.5 10H1.5ZM10 1.5C14.6944 1.5 18.5 5.30558 18.5 10H19.5C19.5 4.75329 15.2467 0.5 10 0.5V1.5ZM18.5 10C18.5 11.9145 17.8677 13.6798 16.8003 15.1005L17.5997 15.7012C18.7928 14.1133 19.5 12.1385 19.5 10H18.5ZM16.7149 15.5222L17.6149 19.1213L18.5851 18.8787L17.6851 15.2796L16.7149 15.5222ZM18.2586 18.5258L14.6586 17.3218L14.3414 18.2701L17.9414 19.4742L18.2586 18.5258ZM14.2496 17.3632C12.9999 18.0861 11.5491 18.5 10 18.5V19.5C11.7295 19.5 13.3525 19.0374 14.7504 18.2288L14.2496 17.3632Z" fill="#262626"/>
</svg>
